<svg xmlns="http://www.w3.org/2000/svg" viewBox="0 0 277.22 178.17"><defs><style>.cls-1{fill:#fff;}.cls-2{fill:#ffe4a3;}</style></defs><title>Asset 1</title><g id="Layer_2" data-name="Layer 2"><g id="Layer_1-2" data-name="Layer 1"><path class="cls-1" d="M263.12,141.27a69.93,69.93,0,1,0-127.07,3.1c2.94-.08,5.88-.16,8.79-.2,14.55-.19,29.09.23,43.64-.06,14.3-.29,28.59-.85,42.89-1.24,6.53-.17,13.11-.36,19.63.07A92.19,92.19,0,0,1,263.12,141.27Z"/><path class="cls-2" d="M145,146.27a63.53,63.53,0,1,1,109.37,0h15.86a77.59,77.59,0,1,0-141.1,0Z"/><rect class="cls-2" x="132.86" y="132.18" width="133.54" height="14.13"/><path class="cls-1" d="M162.25,120.66a80.42,80.42,0,1,0-146.14,3.56c3.38-.09,6.76-.18,10.1-.22,16.73-.21,33.46.27,50.19-.07,16.44-.33,32.88-1,49.33-1.42,7.5-.2,15.08-.41,22.58.08A106,106,0,0,1,162.25,120.66Z"/><path class="cls-2" d="M26.34,126.41a73.06,73.06,0,1,1,125.78,0h18.25a89.23,89.23,0,1,0-162.27,0Z"/><rect class="cls-2" x="12.43" y="110.2" width="153.58" height="16.25"/><path class="cls-1" d="M186.92,172a59,59,0,1,0-107.17,2.61c2.48-.07,5-.13,7.41-.16,12.27-.16,24.54.2,36.8,0,12.06-.24,24.11-.72,36.17-1,5.5-.15,11.06-.3,16.56.06A77.75,77.75,0,0,1,186.92,172Z"/><path class="cls-2" d="M82.52,178.14a56.92,56.92,0,1,1,98,0h14.21a69.51,69.51,0,1,0-126.41,0Z"/><rect class="cls-2" x="71.68" y="165.51" width="119.64" height="12.66"/></g></g></svg>